<svg xmlns="http://www.w3.org/2000/svg" width="644.266" height="270.152" viewBox="0 0 644.266 270.152">
  <g id="noun-fast-2171104_1_" data-name="noun-fast-2171104 (1)" transform="translate(-2.134 -197.104)">
    <path id="Path_34" data-name="Path 34" d="M547,291.5a11.9,11.9,0,1,1,11.9,11.9A11.8,11.8,0,0,1,547,291.5ZM627.5,456c-5.6,2.8-7.8,4-14.1,4.2-3,.1-9,0-11.1-.7-25.2-6.3-86.8-21.7-121.1-43.4-49,18.2-102.2,3.5-144.9-7.7-23.8-6.3-44.1-11.9-58.1-10.5-4.2,11.9-20.3,41.3-69.3,42.7-41.3,1.4-77-18.2-87.5-37.8,0-.7-.7-.7-1.4-.7a2.168,2.168,0,0,0-1.4.7L85.7,434.3a74.858,74.858,0,0,1-61.6,20.3c-6.3-.7-11.9-5.6-14-11.2a16.776,16.776,0,0,1,4.2-17.5l83.3-80.5a31.006,31.006,0,0,1,23.1-7.7c7.7.7,13.3-.7,18.2-9.1-14.7-8.4-28-24.5-35-44.8-7.7-21-7.7-41.3.7-56l3.5-7,5.6,3.5c1.4,1.4,37.1,24.5,53.2,44.8,22.4-13.3,74.2-25.2,142.1-11.2,47.6,9.8,85.4,11.2,114.8,8.4-48.3-9.1-114.1-25.9-140-47.6l-13.3-11.2,17.5-1.4c114.1-7.7,238,8.4,301,38.5,29.4,14,44.8,28.7,47.6,45.5,2.8,18.2-9.8,33.6-21,44.8-19.6,19.6-49,28.7-91.7,26.6,30.1,24.5,74.2,42.7,100.8,51.8a21.864,21.864,0,0,1,14.7,18.9c0,11.2-10.7,23.6-11.9,23.8ZM285.2,383.9c14.7.7,32.9,5.6,53.2,11.2,39.2,10.5,88.2,23.8,131.6,9.8h0l4.2-1.8c3.7-1.3,2.1-.8,4.9-1.7l3.5-1.4,2.8,2.1c32.2,21,94.5,37.8,119.7,43.4a18.064,18.064,0,0,0,14.7-2.1c3.5-1.4,4.9-4.2,4.9-7.7h0a6.817,6.817,0,0,0-5.6-7c-39.2-14-91.7-37.1-120.4-69.3l-11.9-13.3,18.2,2.1c49,5.6,80.5-1.4,100.1-21,13.3-13.3,18.9-23.8,17.5-32.9q-3.15-17.85-39.9-35.7c-57.4-28-166.6-42.7-271.6-38.5,43.4,21,84.5,31.2,116.3,36.9l57.5,9.4-27.6,8.7c-51.8,11.9-91.7,10.2-151.2-2.4-73.5-16.1-123.9,1.4-136.5,11.9l-6.3,4.9-4.2-7c-7.7-12.6-31.5-31.5-46.2-42-2.8,10.5-2.1,23.8,2.8,37.1,7,18.9,20.3,34.3,33.6,39.9l6.3,2.1-2.1,6.3c-6.3,18.2-17.5,26.6-35.7,24.5a15.087,15.087,0,0,0-11.9,3.5L23.4,435a7.611,7.611,0,0,0-.7,3.5,2.235,2.235,0,0,0,2.1,2.1c18.2,2.8,37.1-3.5,50.4-16.1L108.1,393a15.478,15.478,0,0,1,13.3-4.2,14.609,14.609,0,0,1,11.2,7.7c7,13.3,37.1,31.5,74.9,30.1,49.7-1.4,56.7-35.7,57.4-36.4l.7-4.2,19.6-2.1c1.4,0-13.3.7-11.9.7" fill="#00ad00" stroke="#00ad00" stroke-miterlimit="10" stroke-width="14"/>
  </g>
</svg>
