<svg xmlns="http://www.w3.org/2000/svg" width="46.857" height="41" viewBox="0 0 46.857 41">
  <path id="Icon_awesome-random" data-name="Icon awesome-random" d="M46.214,32.179a2.2,2.2,0,0,1,0,3.106l-7.321,7.32a2.2,2.2,0,0,1-3.75-1.553V37.393h-5.38a1.1,1.1,0,0,1-.8-.349L22.5,30.126l4.881-5.23,4.83,5.175h2.929V26.412a2.2,2.2,0,0,1,3.75-1.553l7.321,7.32ZM1.1,15.429H8.786l4.83,5.175,4.881-5.23L12.04,8.456a1.1,1.1,0,0,0-.8-.349H1.1A1.1,1.1,0,0,0,0,9.205V14.33A1.1,1.1,0,0,0,1.1,15.429Zm34.045,0v3.659a2.2,2.2,0,0,0,3.75,1.553l7.321-7.32a2.2,2.2,0,0,0,0-3.106L38.892,2.9a2.2,2.2,0,0,0-3.75,1.553V8.107h-5.38a1.1,1.1,0,0,0-.8.349L8.786,30.071H1.1A1.1,1.1,0,0,0,0,31.17v5.125a1.1,1.1,0,0,0,1.1,1.1H11.237a1.1,1.1,0,0,0,.8-.349L32.214,15.429Z" transform="translate(0 -2.25)" fill="#fff"/>
</svg>
