<svg xmlns="http://www.w3.org/2000/svg" width="585.531" height="359.4" viewBox="0 0 585.531 359.4">
  <g id="noun-snail-1010668" transform="translate(-50.669 -115.7)">
    <path id="Path_28" data-name="Path 28" d="M292.8,188c-36.6-1.7-76.7,10.4-108.5,34.2-31.8,23.9-55.2,60-56.7,105.5-1.2,38.8,16.2,73.9,44.4,99.3a10.727,10.727,0,0,0,7.3,2.8,10.978,10.978,0,0,0,7.4-2.8,9.269,9.269,0,0,0,3-6.7,8.747,8.747,0,0,0-3.2-6.6h0c-24.5-22-39.4-52.1-38.3-85.5,1.3-40,21.4-70.8,49.2-91.7,27.9-20.9,63.6-31.4,94.4-30h.3c96.6,1.9,146.5,75.5,144.4,130.4v.3h0v9.3c0,56.8-50.6,102.7-113.2,102.7S210,403.4,210,346.6v-9.3c0-41.3,36.6-74.4,82.2-74.6,29.3,1,49.5,12,63,26.5,13.5,14.6,19.8,33.2,19.6,47.9v.2h0v9.3c0,25.9-22.9,46.7-51.5,46.7s-51.5-20.8-51.5-46.7v-9.3c0-10.4,9-18.4,20.4-18.6,8.2.3,12.9,3.2,16.2,6.9,3.4,3.8,4.7,9,4.5,11.1-.3,5.2,4,9.6,9.7,9.9s10.6-3.6,10.9-8.8c.5-7.9-2.4-16.4-9-23.9s-17.7-13.6-31.8-14h-.3c-22.6,0-41.2,16.8-41.2,37.3v9.3c0,34.8,30.4,62.8,68.3,64.6a12.171,12.171,0,0,0,3.8.7h0c39.7,0,72.1-29.4,72.1-65.3v-9.2c.3-19.6-7.5-42-24.4-60.2-16.9-18.3-43.3-32.1-78.2-33.2h-.4c-56.7,0-102.9,41.9-102.9,93.3v9.3c0,66.9,60,121.4,133.8,121.4a11.061,11.061,0,0,0,3.7-.7h0c72-1.9,130.1-54.9,130.1-120.6v-9c2.5-65.5-56.5-147.3-164.3-149.6Z" fill="#ff9041" stroke="#ff9041" stroke-miterlimit="10" stroke-width="14" fill-rule="evenodd"/>
    <path id="Path_29" data-name="Path 29" d="M537.8,239.4l17.9,9.3,41.2-65.3L579,174.1Z" fill="#ff9041" stroke="#ff9041" stroke-miterlimit="10" stroke-width="14" fill-rule="evenodd"/>
    <path id="Path_30" data-name="Path 30" d="M475.8,173.5,517,248.2l18.4-8.3-41.2-74.7Z" fill="#ff9041" stroke="#ff9041" stroke-miterlimit="10" stroke-width="14" fill-rule="evenodd"/>
    <path id="Path_31" data-name="Path 31" d="M567.4,160c0,15.4,13.9,28,30.9,28s30.9-12.6,30.9-28-13.9-28-30.9-28S567.4,144.7,567.4,160Z" fill="#ff9041" stroke="#ff9041" stroke-miterlimit="10" stroke-width="14"/>
    <path id="Path_32" data-name="Path 32" d="M443.8,150.7c0,15.4,13.9,28,30.9,28s30.9-12.6,30.9-28-13.9-28-30.9-28S443.8,135.3,443.8,150.7Z" fill="#ff9041" stroke="#ff9041" stroke-miterlimit="10" stroke-width="14"/>
    <path id="Path_33" data-name="Path 33" d="M567.2,234.7c-46.7-2-89.6,21.7-114,57l-15.2,22,17.5,9.9,15.2-22c20.8-30.2,57.1-49.9,95.5-48.3h4.1V328c0,67.1-59.8,121.4-133.8,121.4H85.8l2.7-4.3c17.2-27.2,38.9-42.3,72.2-42.3V384.1c-40.6,0-70.5,20.8-90,51.7L59.2,454.1a8.683,8.683,0,0,0,0,9.3,10.664,10.664,0,0,0,8.9,4.7H436.5c85.2,0,154.4-62.8,154.4-140v-84c0-5.2-4.6-9.3-10.3-9.3Z" fill="#ff9041" stroke="#ff9041" stroke-miterlimit="10" stroke-width="14" fill-rule="evenodd"/>
  </g>
</svg>
