<svg xmlns="http://www.w3.org/2000/svg" width="37.93" height="38.638" viewBox="0 0 37.93 38.638">
  <path id="Icon_awesome-sort-amount-down-alt" data-name="Icon awesome-sort-amount-down-alt" d="M18.111,7.669h4.83a1.287,1.287,0,0,0,1.207-1.355V3.6A1.287,1.287,0,0,0,22.941,2.25h-4.83A1.287,1.287,0,0,0,16.9,3.6V6.314A1.287,1.287,0,0,0,18.111,7.669Zm0,10.837h9.659a1.287,1.287,0,0,0,1.207-1.355V14.442a1.287,1.287,0,0,0-1.207-1.355H18.111A1.287,1.287,0,0,0,16.9,14.442v2.709A1.287,1.287,0,0,0,18.111,18.506ZM37.43,34.761H18.111A1.287,1.287,0,0,0,16.9,36.116v2.709a1.287,1.287,0,0,0,1.207,1.355H37.43a1.287,1.287,0,0,0,1.207-1.355V36.116A1.287,1.287,0,0,0,37.43,34.761ZM18.111,29.343H32.6a1.287,1.287,0,0,0,1.207-1.355V25.279A1.287,1.287,0,0,0,32.6,23.924H18.111A1.287,1.287,0,0,0,16.9,25.279v2.709A1.287,1.287,0,0,0,18.111,29.343Zm-4.83,0H9.659V3.6A1.287,1.287,0,0,0,8.452,2.25H6.037A1.287,1.287,0,0,0,4.83,3.6V29.343H1.207a1.382,1.382,0,0,0-.852,2.312l6.037,8.128a1.117,1.117,0,0,0,1.707,0l6.037-8.128A1.383,1.383,0,0,0,13.282,29.343Z" transform="translate(-2.25 38.637) rotate(-90)" fill="#ededed"/>
</svg>
