<svg xmlns="http://www.w3.org/2000/svg" width="38.643" height="38.638" viewBox="0 0 38.643 38.638">
  <path id="Icon_awesome-upload" data-name="Icon awesome-upload" d="M22.341,28.982H16.3a1.807,1.807,0,0,1-1.811-1.811V14.491H7.872a1.507,1.507,0,0,1-1.064-2.574L18.288.43a1.462,1.462,0,0,1,2.06,0L31.835,11.917a1.507,1.507,0,0,1-1.064,2.574H24.152v12.68A1.807,1.807,0,0,1,22.341,28.982Zm16.3-.6v8.453a1.807,1.807,0,0,1-1.811,1.811H1.811A1.807,1.807,0,0,1,0,36.831V28.378a1.807,1.807,0,0,1,1.811-1.811H12.076v.6A4.229,4.229,0,0,0,16.3,31.4h6.038a4.229,4.229,0,0,0,4.227-4.227v-.6H36.832A1.807,1.807,0,0,1,38.643,28.378ZM29.284,35.02a1.51,1.51,0,1,0-1.51,1.51A1.514,1.514,0,0,0,29.284,35.02Zm4.83,0a1.51,1.51,0,1,0-1.51,1.51A1.514,1.514,0,0,0,34.115,35.02Z" transform="translate(0 -0.005)" fill="#efeded"/>
</svg>
