<svg xmlns="http://www.w3.org/2000/svg" width="23.301" height="20.948" viewBox="0 0 23.301 20.948">
  <path id="Icon_metro-warning" data-name="Icon metro-warning" d="M14.221,3.826l9.764,17.5H4.457l9.764-17.5Zm0-1.9a1.688,1.688,0,0,0-1.385.913L2.89,20.662c-.762,1.218-.114,2.214,1.44,2.214H24.112c1.554,0,2.2-1,1.44-2.214h0L15.607,2.841A1.688,1.688,0,0,0,14.221,1.928Zm1.456,17.02a1.465,1.465,0,1,1-1.456-1.309A1.389,1.389,0,0,1,15.678,18.948ZM14.221,16.33a1.389,1.389,0,0,1-1.456-1.309V11.093a1.465,1.465,0,0,1,2.913,0v3.928A1.389,1.389,0,0,1,14.221,16.33Z" transform="translate(-2.571 -1.928)"/>
</svg>
